<!DOCTYPE svg PUBLIC "-//W3C//DTD SVG 1.1//EN" "http://www.w3.org/Graphics/SVG/1.1/DTD/svg11.dtd">
<!-- Uploaded to: SVG Repo, www.svgrepo.com, Transformed by: SVG Repo Mixer Tools -->
<svg width="64px" height="64px" viewBox="-3.36 -3.36 54.72 54.72" fill="none" xmlns="http://www.w3.org/2000/svg">
<g id="SVGRepo_bgCarrier" stroke-width="0">
<rect x="-3.36" y="-3.36" width="54.72" height="54.72" rx="27.36" fill="#f36825" strokewidth="0" style="--darkreader-inline-fill: #b3410a;" data-darkreader-inline-fill=""/>
</g>
<g id="SVGRepo_tracerCarrier" stroke-linecap="round" stroke-linejoin="round" stroke="#CCCCCC" stroke-width="0.096" style="--darkreader-inline-stroke: #c8c3bc;" data-darkreader-inline-stroke=""/>
<g id="SVGRepo_iconCarrier"> <rect width="48" height="48" fill="white" fill-opacity="0.01" style="--darkreader-inline-fill: #181a1b;" data-darkreader-inline-fill=""/> <path d="M24 24C29.5228 24 34 19.5228 34 14C34 8.47715 29.5228 4 24 4V24Z" fill="#f36825" stroke="#ffffff" stroke-width="4.08" stroke-linejoin="round" style="--darkreader-inline-fill: #f47436; --darkreader-inline-stroke: #e8e6e3;" data-darkreader-inline-stroke="" data-darkreader-inline-fill=""/> <path d="M24 24C24 29.5228 28.4772 34 34 34C39.5228 34 44 29.5228 44 24H24Z" fill="#f36825" stroke="#ffffff" stroke-width="4.08" stroke-linejoin="round" style="--darkreader-inline-fill: #f47436; --darkreader-inline-stroke: #e8e6e3;" data-darkreader-inline-stroke="" data-darkreader-inline-fill=""/> <path d="M24 24C24 18.4772 19.5228 14 14 14C8.47715 14 4 18.4772 4 24H24Z" fill="#f36825" stroke="#ffffff" stroke-width="4.08" stroke-linejoin="round" style="--darkreader-inline-fill: #f47436; --darkreader-inline-stroke: #e8e6e3;" data-darkreader-inline-stroke="" data-darkreader-inline-fill=""/> <path d="M24 24C18.4772 24 14 28.4772 14 34C14 39.5228 18.4772 44 24 44V24Z" fill="#f36825" stroke="#ffffff" stroke-width="4.08" stroke-linejoin="round" style="--darkreader-inline-fill: #f47436; --darkreader-inline-stroke: #e8e6e3;" data-darkreader-inline-stroke="" data-darkreader-inline-fill=""/> </g>
</svg>